# xmcd
#
# Track frame offsets:
#	150
#	17200
#	32275
#	50325
#	67300
#	81875
#	93100
#	108825
#	122275
#	139362
#	154387
#	171025
#	188887
#	198600
#	211500
#	228187
#	244575
#	260237
#	279187
#	294650
#
# Disc length: 4113 seconds
#
# Revision: 1
# Processed by: cddbd v1.5.2PL0 Copyright (c) Steve Scherf et al.
# Submitted via: EZCDAudioConverter 2.1.7.1
#
DISCID=15100f14
DTITLE=Various Artist - 往日情懷之經典金曲精選第二輯
DYEAR=1900
DGENRE=Country
TTITLE0=你的眼神_蔡琴
TTITLE1=思念總在分手後_陳淑華
TTITLE2=一顆紅豆_鳳飛飛
TTITLE3=在水一方_江蕾
TTITLE4=小丑的心聲_劉家昌
TTITLE5=天涼好在秋_鮑正芳
TTITLE6=在這裡_沈雁
TTITLE7=多情的雨滴_林慧萍
TTITLE8=我心深處_黃露儀
TTITLE9=四季歌_陳淑樺
TTITLE10=春天_江玲
TTITLE11=也許\_張艾嘉
TTITLE12=煙雨_江蕾
TTITLE13=情深依舊_陳淑樺
TTITLE14=直到那一天_蔡琴
TTITLE15=男朋友_江玲
TTITLE16=希望還能遇見你_蔡琴
TTITLE17=不要只愛一點點_陳淑樺
TTITLE18=紅磚路_陳淑樺
TTITLE19=再愛我一次_蔡琴
EXTD=
EXTT0=
EXTT1=
EXTT2=
EXTT3=
EXTT4=
EXTT5=
EXTT6=
EXTT7=
EXTT8=
EXTT9=
EXTT10=
EXTT11=
EXTT12=
EXTT13=
EXTT14=
EXTT15=
EXTT16=
EXTT17=
EXTT18=
EXTT19=
PLAYORDER=
